<svg width="48" height="48" viewBox="0 0 48 48" fill="none" xmlns="http://www.w3.org/2000/svg">
<path d="M17.848 18.998C19.9333 18.998 21.574 18.4307 22.77 17.296C23.9967 16.1613 24.61 14.5973 24.61 12.604C24.61 9.78267 23.8893 7.48267 22.448 5.704C21.0373 3.89467 18.9673 2.99 16.238 2.99C14.1527 2.99 12.2513 3.588 10.534 4.784V32.844L17.664 34.822L16.744 36.662H0.46V35.236L4.784 31.832V3.864L0 2.3L0.92 0.460002H6.256C9.23067 0.460002 12.1593 0.368002 15.042 0.184C17.1887 0.0613336 18.768 0 19.78 0C21.9267 0 23.828 0.460001 25.484 1.38C27.1707 2.26933 28.474 3.51133 29.394 5.106C30.314 6.70067 30.774 8.464 30.774 10.396C30.774 12.5427 29.992 14.5667 28.428 16.468C26.864 18.3693 24.8707 19.8567 22.448 20.93C20.0253 22.0033 17.6487 22.4787 15.318 22.356L13.156 20.792L14.076 18.952H17.802L17.848 18.998Z" fill="white"/>
<path d="M3.2002 1.61719L3.20019 33.6172" stroke="white" stroke-width="0.5"/>
<line x1="46.0607" y1="8.06066" x2="8.06066" y2="46.0607" stroke="white" stroke-width="3"/>
</svg>
